<svg width="681" height="1010" viewBox="0 0 681 1010" fill="none" xmlns="http://www.w3.org/2000/svg">
<path d="M255.198 168.334V252.5H170.146L255.198 168.334Z" fill="#1B2142"/>
<path d="M340.251 168.334V252.5H255.198L340.251 168.334Z" fill="#1B2142"/>
<path d="M255.198 252.5V336.667H170.146L255.198 252.5Z" fill="#1B2142"/>
<path d="M340.251 252.5V336.667H255.198L340.251 252.5Z" fill="#1B2142"/>
<path d="M85.0526 336.667V420.834H0.000244141L85.0526 336.667Z" fill="#2B74D7"/>
<path d="M170.105 336.667V420.834H85.0527L170.105 336.667Z" fill="#2B74D7"/>
<path d="M85.0526 420.834V505.001H0.000244141L85.0526 420.834Z" fill="#2B74D7"/>
<path d="M170.105 420.834V505.001H85.0527L170.105 420.834Z" fill="#2B74D7"/>
<path d="M255.198 505.001V420.834H340.25L255.198 505.001Z" fill="#4695FF"/>
<path d="M170.145 505.001V420.834H255.198L170.145 505.001Z" fill="#4695FF"/>
<path d="M255.198 420.834V336.667H340.25L255.198 420.834Z" fill="#4695FF"/>
<path d="M170.145 420.834V336.667H255.198L170.145 420.834Z" fill="#4695FF"/>
<path d="M425.343 336.912V421.078H510.395L425.343 336.912Z" fill="#2B74D7"/>
<path d="M340.29 336.912V421.078H425.343L340.29 336.912Z" fill="#2B74D7"/>
<path d="M425.343 421.079V505.245H510.395L425.343 421.079Z" fill="#2B74D7"/>
<path d="M340.29 421.079V505.245H425.343L340.29 421.079Z" fill="#2B74D7"/>
<path d="M595.487 505.245V421.079H510.435L595.487 505.245Z" fill="#1B2142"/>
<path d="M680.54 505.245V421.079H595.488L680.54 505.245Z" fill="#1B2142"/>
<path d="M595.487 421.078V336.912H510.435L595.487 421.078Z" fill="#1B2142"/>
<path d="M680.54 421.078V336.912H595.488L680.54 421.078Z" fill="#1B2142"/>
<path d="M85.0524 505.002V589.168H0L85.0524 505.002Z" fill="#1B2142"/>
<path d="M170.105 505.002V589.168H85.0525L170.105 505.002Z" fill="#1B2142"/>
<path d="M85.0524 589.167V673.334H0L85.0524 589.167Z" fill="#1B2142"/>
<path d="M170.105 589.167V673.334H85.0525L170.105 589.167Z" fill="#1B2142"/>
<path d="M255.198 673.334V589.168H170.146L255.198 673.334Z" fill="#2B74D7"/>
<path d="M340.25 673.334V589.168H255.198L340.25 673.334Z" fill="#2B74D7"/>
<path d="M255.198 589.169V505.002H170.146L255.198 589.169Z" fill="#2B74D7"/>
<path d="M340.25 589.169V505.002H255.198L340.25 589.169Z" fill="#2B74D7"/>
<path d="M425.342 505.001V589.167H340.29L425.342 505.001Z" fill="#1B2142"/>
<path d="M510.395 505.001V589.167H425.343L510.395 505.001Z" fill="#1B2142"/>
<path d="M425.342 589.167V673.333H340.29L425.342 589.167Z" fill="#1B2142"/>
<path d="M510.395 589.167V673.333H425.343L510.395 589.167Z" fill="#1B2142"/>
<path d="M595.488 673.334V589.168H680.54L595.488 673.334Z" fill="#4695FF"/>
<path d="M510.435 673.334V589.168H595.488L510.435 673.334Z" fill="#4695FF"/>
<path d="M595.488 589.169V505.002H680.54L595.488 589.169Z" fill="#4695FF"/>
<path d="M510.435 589.169V505.002H595.488L510.435 589.169Z" fill="#4695FF"/>
<path d="M595.488 673.335V757.502H680.54L595.488 673.335Z" fill="#1B2142"/>
<path d="M510.435 673.335V757.502H595.488L510.435 673.335Z" fill="#1B2142"/>
<path d="M595.488 757.501V841.668H680.54L595.488 757.501Z" fill="#1B2142"/>
<path d="M510.435 757.501V841.668H595.488L510.435 757.501Z" fill="#1B2142"/>
<path d="M425.342 841.668V757.502H510.395L425.342 841.668Z" fill="#2B74D7"/>
<path d="M340.29 841.668V757.502H425.342L340.29 841.668Z" fill="#2B74D7"/>
<path d="M425.342 757.503V673.336H510.395L425.342 757.503Z" fill="#2B74D7"/>
<path d="M340.29 757.503V673.336H425.342L340.29 757.503Z" fill="#2B74D7"/>
<path d="M255.198 673.336V757.502H340.25L255.198 673.336Z" fill="#1B2142"/>
<path d="M170.145 673.336V757.502H255.198L170.145 673.336Z" fill="#1B2142"/>
<path d="M255.198 757.502V841.668H340.25L255.198 757.502Z" fill="#1B2142"/>
<path d="M170.145 757.502V841.668H255.198L170.145 757.502Z" fill="#1B2142"/>
<path d="M85.0526 841.667V757.501H170.105L85.0526 841.667Z" fill="#2B74D7"/>
<path d="M9.15527e-05 841.667V757.501H85.0525L9.15527e-05 841.667Z" fill="#2B74D7"/>
<path d="M85.0526 757.501V673.335H170.105L85.0526 757.501Z" fill="#2B74D7"/>
<path d="M9.15527e-05 757.501V673.335H85.0525L9.15527e-05 757.501Z" fill="#2B74D7"/>
<path d="M85.0524 841.668V925.834H0L85.0524 841.668Z" fill="#1B2142"/>
<path d="M170.105 841.668V925.834H85.0525L170.105 841.668Z" fill="#1B2142"/>
<path d="M85.0524 925.834V1010H0L85.0524 925.834Z" fill="#1B2142"/>
<path d="M170.105 925.834V1010H85.0525L170.105 925.834Z" fill="#1B2142"/>
<path d="M255.198 1010V925.833H170.146L255.198 1010Z" fill="#4695FF"/>
<path d="M340.25 1010V925.833H255.198L340.25 1010Z" fill="#4695FF"/>
<path d="M255.198 925.834V841.667H170.146L255.198 925.834Z" fill="#4695FF"/>
<path d="M340.25 925.834V841.667H255.198L340.25 925.834Z" fill="#4695FF"/>
<path d="M425.342 841.667V925.834H340.29L425.342 841.667Z" fill="#1B2142"/>
<path d="M510.395 841.667V925.834H425.343L510.395 841.667Z" fill="#1B2142"/>
<path d="M425.342 925.833V1010H340.29L425.342 925.833Z" fill="#1B2142"/>
<path d="M510.395 925.833V1010H425.343L510.395 925.833Z" fill="#1B2142"/>
<path d="M595.488 1010V925.833H680.54L595.488 1010Z" fill="#4695FF"/>
<path d="M510.435 1010V925.833H595.488L510.435 1010Z" fill="#4695FF"/>
<path d="M595.488 925.834V841.667H680.54L595.488 925.834Z" fill="#4695FF"/>
<path d="M510.435 925.834V841.667H595.488L510.435 925.834Z" fill="#4695FF"/>
<path d="M85.0524 0.000923157V84.1674H0L85.0524 0.000923157Z" fill="#2B74D7"/>
<path d="M170.105 0.000923157V84.1674H85.0525L170.105 0.000923157Z" fill="#2B74D7"/>
<path d="M85.0524 84.1672V168.334H0L85.0524 84.1672Z" fill="#2B74D7"/>
<path d="M170.105 84.1672V168.334H85.0525L170.105 84.1672Z" fill="#2B74D7"/>
<path d="M255.198 168.333V84.1665H170.146L255.198 168.333Z" fill="#4695FF"/>
<path d="M340.251 168.333V84.1665H255.198L340.251 168.333Z" fill="#4695FF"/>
<path d="M255.198 84.1667V0.000244141H170.146L255.198 84.1667Z" fill="#4695FF"/>
<path d="M340.251 84.1667V0.000244141H255.198L340.251 84.1667Z" fill="#4695FF"/>
<path d="M425.342 -5.34058e-05V84.1664H340.29L425.342 -5.34058e-05Z" fill="#1B2142"/>
<path d="M510.395 -5.34058e-05V84.1664H425.343L510.395 -5.34058e-05Z" fill="#1B2142"/>
<path d="M425.342 84.1663V168.333H340.29L425.342 84.1663Z" fill="#1B2142"/>
<path d="M510.395 84.1663V168.333H425.343L510.395 84.1663Z" fill="#1B2142"/>
<path d="M595.487 168.334V84.1677H510.435L595.487 168.334Z" fill="#2B74D7"/>
<path d="M680.539 168.334V84.1677H595.487L680.539 168.334Z" fill="#2B74D7"/>
<path d="M595.487 84.1673V0.000854492H510.435L595.487 84.1673Z" fill="#2B74D7"/>
<path d="M680.539 84.1673V0.000854492H595.487L680.539 84.1673Z" fill="#2B74D7"/>
<path d="M85.0524 336.667V252.5H0L85.0524 336.667Z" fill="#1B2142"/>
<path d="M170.105 336.667V252.5H85.0525L170.105 336.667Z" fill="#1B2142"/>
<path d="M85.0524 252.5V168.333H0L85.0524 252.5Z" fill="#1B2142"/>
<path d="M170.105 252.5V168.333H85.0525L170.105 252.5Z" fill="#1B2142"/>
<path d="M425.343 168.334V252.501H510.395L425.343 168.334Z" fill="#4695FF"/>
<path d="M340.29 168.334V252.501H425.343L340.29 168.334Z" fill="#4695FF"/>
<path d="M425.343 252.501V336.668H510.395L425.343 252.501Z" fill="#4695FF"/>
<path d="M340.29 252.501V336.668H425.343L340.29 252.501Z" fill="#4695FF"/>
<path d="M595.488 336.668V252.501H680.54L595.488 336.668Z" fill="#1B2142"/>
<path d="M510.435 336.668V252.501H595.488L510.435 336.668Z" fill="#1B2142"/>
<path d="M595.488 252.501V168.335H680.54L595.488 252.501Z" fill="#1B2142"/>
<path d="M510.435 252.501V168.335H595.488L510.435 252.501Z" fill="#1B2142"/>
</svg>
